<?xml version="1.0" encoding="UTF-8"?>
<svg width="23px" height="23px" viewBox="0 0 23 23" version="1.1" xmlns="http://www.w3.org/2000/svg" xmlns:xlink="http://www.w3.org/1999/xlink">
    <!-- Generator: Sketch 41.2 (35397) - http://www.bohemiancoding.com/sketch -->
    <title>Page 1</title>
    <desc>Created with Sketch.</desc>
    <defs></defs>
    <g id="Symbols" stroke="none" stroke-width="1" fill="none" fill-rule="evenodd">
        <g id="Search/Blue" transform="translate(-1.000000, -1.000000)" fill="#7591D0">
            <path d="M15.0701631,14.2293631 C15.6405631,13.4793631 15.9997631,12.5201631 15.9997631,11.4997631 C15.9997631,9.00896314 13.9905631,6.99976314 11.4997631,6.99976314 C9.00896314,6.99976314 6.99976314,9.00896314 6.99976314,11.4997631 C6.99976314,13.9905631 9.00896314,15.9997631 11.4997631,15.9997631 C12.5201631,15.9997631 13.4793631,15.6405631 14.2293631,15.0701631 L17.3793631,18.2201631 C17.4997631,18.3405631 17.6497631,18.3997631 17.7997631,18.3997631 C17.9201631,18.3997631 18.0089631,18.3701631 18.0997631,18.3089631 L18.1293631,18.3089631 C18.1589631,18.2793631 18.1889631,18.2497631 18.2201631,18.2185631 C18.4605631,17.9777631 18.4605631,17.6185631 18.2201631,17.3777631 L15.0701631,14.2293631 Z M8.22936314,11.4997631 C8.22936314,9.69976314 9.69976314,8.22936314 11.4997631,8.22936314 C13.2997631,8.22936314 14.7701631,9.69976314 14.7701631,11.4997631 C14.7701631,13.2997631 13.2997631,14.7701631 11.4997631,14.7701631 C9.69976314,14.7701631 8.22936314,13.2997631 8.22936314,11.4997631 Z M12.6997631,1.59976314 C6.57936314,1.59976314 1.59976314,6.57936314 1.59976314,12.6997631 C1.59976314,18.8201631 6.57936314,23.7997631 12.6997631,23.7997631 C18.8201631,23.7997631 23.7997631,18.8201631 23.7997631,12.6997631 C23.7997631,6.57936314 18.8201631,1.59976314 12.6997631,1.59976314 Z M12.6997631,22.5997631 C7.24056314,22.5997631 2.79976314,18.1589631 2.79976314,12.6997631 C2.79976314,7.24056314 7.24056314,2.79976314 12.6997631,2.79976314 C18.1589631,2.79976314 22.5997631,7.24056314 22.5997631,12.6997631 C22.5997631,18.1589631 18.1589631,22.5997631 12.6997631,22.5997631 Z" id="Page-1" transform="translate(12.699763, 12.699763) rotate(81.000000) translate(-12.699763, -12.699763) "></path>
        </g>
    </g>
</svg>